<svg width="19" height="13" viewBox="0 0 19 13" fill="none" xmlns="http://www.w3.org/2000/svg">
<path d="M10.7994 3.5C10.7994 2.94772 11.2471 2.5 11.7994 2.5H12.7994C13.3517 2.5 13.7994 2.94772 13.7994 3.5V11.5C13.7994 12.0523 13.3517 12.5 12.7994 12.5H11.7994C11.2471 12.5 10.7994 12.0523 10.7994 11.5V3.5Z" fill="black"/>
<path d="M15.7994 1.5C15.7994 0.947715 16.2471 0.5 16.7994 0.5H17.7994C18.3517 0.5 18.7994 0.947715 18.7994 1.5V11.5C18.7994 12.0523 18.3517 12.5 17.7994 12.5H16.7994C16.2471 12.5 15.7994 12.0523 15.7994 11.5V1.5Z" fill="black"/>
<path d="M5.7994 7C5.7994 6.44772 6.24712 6 6.7994 6H7.7994C8.35169 6 8.7994 6.44772 8.7994 7V11.5C8.7994 12.0523 8.35169 12.5 7.7994 12.5H6.7994C6.24712 12.5 5.7994 12.0523 5.7994 11.5V7Z" fill="black"/>
<path d="M0.799404 9.5C0.799404 8.94772 1.24712 8.5 1.7994 8.5H2.7994C3.35169 8.5 3.7994 8.94772 3.7994 9.5V11.5C3.7994 12.0523 3.35169 12.5 2.7994 12.5H1.7994C1.24712 12.5 0.799404 12.0523 0.799404 11.5V9.5Z" fill="black"/>
</svg>
