<svg width="29" height="13" viewBox="0 0 29 13" fill="none" xmlns="http://www.w3.org/2000/svg">
<path opacity="0.35" d="M1.32695 4C1.32695 2.08221 2.88162 0.527543 4.79941 0.527543H21.7994C23.7172 0.527543 25.2719 2.08222 25.2719 4V9C25.2719 10.9178 23.7172 12.4725 21.7994 12.4725H4.79941C2.88162 12.4725 1.32695 10.9178 1.32695 9V4Z" stroke="black" stroke-width="1.05509"/>
<path opacity="0.4" d="M26.7994 5V9.22034C27.6485 8.86291 28.2006 8.0314 28.2006 7.11017C28.2006 6.18894 27.6485 5.35744 26.7994 5Z" fill="black"/>
<path d="M2.79941 4C2.79941 2.89543 3.69484 2 4.79941 2H21.7994C22.904 2 23.7994 2.89543 23.7994 4V9C23.7994 10.1046 22.904 11 21.7994 11H4.79941C3.69484 11 2.79941 10.1046 2.79941 9V4Z" fill="black"/>
</svg>
