<svg width="18" height="13" viewBox="0 0 18 13" fill="none" xmlns="http://www.w3.org/2000/svg">
<path fill-rule="evenodd" clip-rule="evenodd" d="M9.29987 3.08753C11.7664 3.08764 14.1387 4.05505 15.9263 5.78982C16.0609 5.92375 16.2761 5.92206 16.4086 5.78603L17.6954 4.46045C17.7625 4.39146 17.8 4.298 17.7994 4.20076C17.7988 4.10353 17.7603 4.01052 17.6924 3.94234C13.0005 -0.647446 5.59848 -0.647446 0.906567 3.94234C0.838601 4.01047 0.800039 4.10345 0.799412 4.20069C0.798785 4.29792 0.836146 4.39141 0.903228 4.46045L2.19037 5.78603C2.32286 5.92226 2.53819 5.92396 2.67272 5.78982C4.46056 4.05494 6.83307 3.08752 9.29987 3.08753ZM9.33532 7.08938C10.6905 7.08929 11.9974 7.60346 13.0019 8.53199C13.1378 8.66376 13.3518 8.66091 13.4843 8.52555L14.7696 7.19997C14.8373 7.13044 14.8748 7.03611 14.8738 6.9381C14.8729 6.84008 14.8334 6.74656 14.7644 6.67844C11.7053 3.77385 6.96793 3.77385 3.90885 6.67844C3.83975 6.74656 3.80033 6.84013 3.79942 6.93817C3.79851 7.03622 3.8362 7.13054 3.90403 7.19997L5.18894 8.52555C5.32139 8.66091 5.53542 8.66376 5.67129 8.53199C6.67519 7.60408 7.981 7.08995 9.33532 7.08938ZM11.949 9.67672C11.9509 9.77501 11.9131 9.86977 11.8443 9.93863L9.62105 12.2289C9.55588 12.2962 9.46703 12.334 9.37431 12.334C9.2816 12.334 9.19274 12.2962 9.12757 12.2289L6.90393 9.93863C6.83523 9.86972 6.79745 9.77492 6.79948 9.67663C6.80152 9.57834 6.8432 9.48527 6.91469 9.41938C8.33455 8.19354 10.4141 8.19354 11.8339 9.41938C11.9054 9.48532 11.947 9.57843 11.949 9.67672Z" fill="black"/>
</svg>
