<svg width="16" height="12" viewBox="0 0 16 12" fill="none" xmlns="http://www.w3.org/2000/svg">
<path fill-rule="evenodd" clip-rule="evenodd" d="M2.91667 0.333344C1.8121 0.333344 0.916672 1.22877 0.916672 2.33334V2.91204C0.916672 3.14329 1.06374 3.34488 1.26209 3.46377C2.0372 3.92838 2.56951 4.8896 2.56951 6.00001C2.56951 7.11042 2.0372 8.07164 1.26209 8.53625C1.06374 8.65514 0.916672 8.85674 0.916672 9.08798V9.66668C0.916672 10.7712 1.8121 11.6667 2.91667 11.6667H13.0833C14.1879 11.6667 15.0833 10.7712 15.0833 9.66668V9.08792C15.0833 8.85668 14.9363 8.6551 14.738 8.5362C13.9629 8.07157 13.4306 7.11038 13.4306 6.00001C13.4306 4.88964 13.9629 3.92845 14.738 3.46382C14.9363 3.34493 15.0833 3.14334 15.0833 2.9121V2.33334C15.0833 1.22877 14.1879 0.333344 13.0833 0.333344H2.91667ZM9.375 1.04168V3.52084C9.375 3.93506 9.71079 4.27084 10.125 4.27084C10.5392 4.27084 10.875 3.93506 10.875 3.52084V1.04168H9.375ZM10.875 8.47918C10.875 8.06496 10.5392 7.72918 10.125 7.72918C9.71079 7.72918 9.375 8.06496 9.375 8.47918V10.9583H10.875V8.47918Z" fill="white"/>
</svg>
